<?xml version="1.0" standalone="no"?><!DOCTYPE svg PUBLIC "-//W3C//DTD SVG 1.1//EN" "http://www.w3.org/Graphics/SVG/1.1/DTD/svg11.dtd"><svg t="1653135674579" class="icon" viewBox="0 0 1024 1024" version="1.1" xmlns="http://www.w3.org/2000/svg" p-id="5558" xmlns:xlink="http://www.w3.org/1999/xlink" width="240" height="240"><defs><style type="text/css">@font-face { font-family: feedback-iconfont; src: url("//at.alicdn.com/t/font_1031158_u69w8yhxdu.woff2?t=1630033759944") format("woff2"), url("//at.alicdn.com/t/font_1031158_u69w8yhxdu.woff?t=1630033759944") format("woff"), url("//at.alicdn.com/t/font_1031158_u69w8yhxdu.ttf?t=1630033759944") format("truetype"); }
</style></defs><path d="M170.6752 0h682.6496A170.6752 170.6752 0 0 1 1024 170.6752v682.6496A170.6752 170.6752 0 0 1 853.3248 1024H170.6752A170.6752 170.6752 0 0 1 0 853.3248V170.6752A170.6752 170.6752 0 0 1 170.6752 0z m350.72 682.6752H195.0464a42.6752 42.6752 0 1 0 0 85.3248h326.2976a128 128 0 0 0 241.536 0h72.2432a42.6752 42.6752 0 1 0 0-85.3248H762.88a128 128 0 0 0-241.4336 0zM263.2704 256H192.5376a42.6752 42.6752 0 1 0 0 85.3248h70.7584a128 128 0 0 0 241.4336 0h327.68a42.6752 42.6752 0 0 0 0-85.3248h-327.68a128 128 0 0 0-241.4336 0z" p-id="5559"></path></svg>