<?xml version="1.0" standalone="no"?><!DOCTYPE svg PUBLIC "-//W3C//DTD SVG 1.1//EN" "http://www.w3.org/Graphics/SVG/1.1/DTD/svg11.dtd"><svg t="1646472156835" class="icon" viewBox="0 0 1024 1024" version="1.1" xmlns="http://www.w3.org/2000/svg" p-id="5189" xmlns:xlink="http://www.w3.org/1999/xlink" width="200" height="200"><defs><style type="text/css"></style></defs><path d="M956.8 828.7c3.2 20-0.8 38-12 54-11.1 16-26.4 25.7-45.5 29l-115.1 19c-18.5 3.3-35.7-0.9-51.3-12.5-15.6-11.6-25.1-27.5-28.3-47.5l-97.8-646c-1.3-10-0.8-19.5 1.4-28.5s6-17.4 11-25c5.1-7.7 11.7-14 19.7-19s16.8-8.5 26.4-10.5l114.1-19c19.2-3.3 36.4 1 51.8 13 15.4 12 24.6 28 27.8 48l97.8 645zM510 99.6c19.2 0 35.5 7 48.9 21 13.4 14 20.1 31 20.1 51v667.9c0 20-6.7 37-20.1 51-13.4 14-29.7 21-48.9 21h-99.7c-19.2 0-35.5-7-48.9-21-13.4-14-20.1-31-20.1-51V171.6c0-20 5.1-37 15.4-51s25.3-21 45-21H510z m23.4 504c6.4 0 11.8-3.1 16.3-9.5 4.5-6.3 6.7-13.9 6.7-22.5 0-9.4-2.3-17-6.7-23-4.5-6-9.9-9-16.3-9h-99.7c-6.4 0-11.8 3-16.3 9s-6.7 13.7-6.7 23c0 8.7 2.2 16.2 6.7 22.5 4.5 6.4 9.9 9.5 16.3 9.5h99.7z m0-127.1c6.4 0 11.8-3.1 16.3-9.5 4.5-6.3 6.7-14.2 6.7-23.5s-2.3-17-6.7-23c-4.5-6.1-9.9-9-16.3-9h-99.7c-6.4 0-11.8 3-16.3 9s-6.7 13.7-6.7 23 2.2 17.2 6.7 23.5c4.5 6.3 9.9 9.5 16.3 9.5h99.7z m-301-376.9c19.2 0 35.7 7 49.3 21 13.7 14 20.6 31 20.6 51v667.9c0 20-6.8 37-20.6 51s-30.2 21-49.3 21h-99.7c-19.2 0-35.7-7-49.3-21-13.8-14-20.6-31-20.6-51V171.6c0-20 6.8-37 20.6-51s30.2-21 49.3-21h99.7z m-95.9 250c-7 0-12.8 3-17.2 9-4.5 6-6.7 13.7-6.7 23 0 8.7 2.2 16.2 6.7 22.5 4.5 6.2 10.2 9.5 17.2 9.5h92c7 0 12.6-3.1 16.8-9.5s6.3-13.9 6.3-22.5c0-9.4-2.1-17-6.3-23-4.1-6-9.7-9-16.8-9h-92z m95.9 313.9c7 0 12.6-3 16.8-9 4.1-6 6.3-13.4 6.3-22 0-9.4-2.1-16.8-6.3-22.5s-9.7-8.5-16.8-8.5h-95.9c-7 0-12.8 2.8-17.2 8.5-4.4 5.7-6.7 13.2-6.7 22.5 0 8.7 2.2 16 6.7 22s10.2 9 17.2 9h95.9z m0-122.9c7 0 12.6-3 16.8-9 4.1-6 6.3-13.7 6.3-23 0-9.4-2.1-17-6.3-23-4.1-6-9.7-9-16.8-9h-95.9c-7 0-12.8 3-17.2 9-4.5 6-6.7 13.7-6.7 23 0 9.4 2.2 17 6.7 23 4.5 5.9 10.2 9 17.2 9h95.9z" p-id="5190" fill="#909399"></path></svg>