<?xml version="1.0" standalone="no"?><!DOCTYPE svg PUBLIC "-//W3C//DTD SVG 1.1//EN" "http://www.w3.org/Graphics/SVG/1.1/DTD/svg11.dtd"><svg t="1646494062534" class="icon" viewBox="0 0 1024 1024" version="1.1" xmlns="http://www.w3.org/2000/svg" p-id="2291" xmlns:xlink="http://www.w3.org/1999/xlink" width="200" height="200"><defs><style type="text/css"></style></defs><path d="M759.3 525.4h-200v199.4c0 110.2 89.6 199.4 200 199.4 110.5 0 199.9-89.3 199.9-199.4 0.1-110.2-89.4-199.4-199.9-199.4zM98 724.8c0 110.2 89.6 199.4 199.9 199.4 110.5 0 199.9-89.2 199.9-199.4V525.4H297.9C187.6 525.4 98 614.6 98 724.8z m861.3-460.3c0-110.2-89.6-199.4-199.9-199.4-110.4 0-200 89.3-200 199.4v199.4h200c110.4 0 199.9-89.2 199.9-199.4zM297.9 65.1C187.5 65.1 98 154.5 98 264.5c0 110.2 89.6 199.4 199.9 199.4h200V264.5c0-110.1-89.5-199.4-200-199.4z" fill="#909399" p-id="2292"></path></svg>