<?xml version="1.0" standalone="no"?><!DOCTYPE svg PUBLIC "-//W3C//DTD SVG 1.1//EN" "http://www.w3.org/Graphics/SVG/1.1/DTD/svg11.dtd"><svg t="1649004383477" class="icon" viewBox="0 0 1024 1024" version="1.1" xmlns="http://www.w3.org/2000/svg" p-id="2972" xmlns:xlink="http://www.w3.org/1999/xlink" width="200" height="200"><defs><style type="text/css">@font-face { font-family: feedback-iconfont; src: url("//at.alicdn.com/t/font_1031158_u69w8yhxdu.woff2?t=1630033759944") format("woff2"), url("//at.alicdn.com/t/font_1031158_u69w8yhxdu.woff?t=1630033759944") format("woff"), url("//at.alicdn.com/t/font_1031158_u69w8yhxdu.ttf?t=1630033759944") format("truetype"); }
</style></defs><path d="M12.795383 550.784512h92.979783a11.942357 11.942357 0 0 1 12.795383 11.942357v12.795383a12.795383 12.795383 0 0 1-12.795383 11.942358H12.795383a12.36887 12.36887 0 0 1-12.795383-11.942358v-12.795383a11.942357 11.942357 0 0 1 12.795383-11.942357z m0-365.521441h92.979783a11.942357 11.942357 0 0 1 12.795383 11.942357v12.795383a11.942357 11.942357 0 0 1-12.795383 11.942358H12.795383a11.942357 11.942357 0 0 1-12.795383-11.942358v-12.795383a11.942357 11.942357 0 0 1 12.795383-11.942357z m0 182.973977h92.979783a11.942357 11.942357 0 0 1 12.795383 11.515844v13.221896a11.942357 11.942357 0 0 1-12.795383 11.515845H12.795383a11.942357 11.942357 0 0 1-12.795383-11.515845V379.752892a11.942357 11.942357 0 0 1 12.795383-11.515844z m0 365.094928h92.979783a12.36887 12.36887 0 0 1 12.795383 11.942358v12.795383a11.942357 11.942357 0 0 1-12.795383 11.942357H12.795383a11.942357 11.942357 0 0 1-12.795383-11.942357v-12.795383a12.36887 12.36887 0 0 1 12.795383-11.942358z" p-id="2973"></path><path d="M945.578804 73.090213h-69.521581a10.236306 10.236306 0 0 1-10.236307-8.103742A76.772298 76.772298 0 0 0 787.76908 0.15653H127.95383A85.302553 85.302553 0 0 0 37.533123 82.473494v54.593634a9.383281 9.383281 0 0 0 9.809794 9.383281H106.628192a47.76943 47.76943 0 0 1 49.475481 45.210353v27.296817a38.386149 38.386149 0 0 1-39.665688 37.106611H47.342917a9.383281 9.383281 0 0 0-9.809794 8.956768v54.593634a9.383281 9.383281 0 0 0 9.809794 9.383281H106.628192a47.76943 47.76943 0 0 1 49.475481 46.063379v17.913536a48.195943 48.195943 0 0 1-49.475481 46.063379H47.342917a9.383281 9.383281 0 0 0-9.809794 8.956768v54.593634a9.383281 9.383281 0 0 0 9.809794 9.383281H106.628192a47.76943 47.76943 0 0 1 49.048968 45.636866v27.296817a38.386149 38.386149 0 0 1-39.665687 36.680098H47.342917a9.809794 9.809794 0 0 0-10.236306 9.383281v54.593634a9.809794 9.809794 0 0 0 10.236306 9.383281h58.858762a47.342917 47.342917 0 0 1 49.048968 45.636866V767.87951a37.959636 37.959636 0 0 1-39.239174 36.253585H46.916404a10.236306 10.236306 0 0 0-10.236306 9.383281v127.95383A85.302553 85.302553 0 0 0 127.95383 1023.78717h810.374257a85.302553 85.302553 0 0 0 85.302553-82.316964V146.450409a76.345785 76.345785 0 0 0-78.904862-73.360196z m-343.342777 91.273732a47.76943 47.76943 0 0 1 55.446659-13.648408l94.259322 49.048968A37.959636 37.959636 0 0 1 767.72298 249.239986l-298.558937 466.178454a10.662819 10.662819 0 0 1-13.221895 3.412102l-147.573418-76.345785a8.956768 8.956768 0 0 1-3.838615-12.36887z m-178.70885 597.117874l-119.850087 42.651276a10.662819 10.662819 0 0 1-12.795383-5.544666v-2.559076l-9.809794-107.90773a9.383281 9.383281 0 0 1 8.956768-9.809794 13.648409 13.648409 0 0 1 5.971179 0l127.95383 66.962505a8.956768 8.956768 0 0 1 3.838615 12.36887 8.530255 8.530255 0 0 1-4.69164 4.69164z m522.051627 152.265057c0 40.0922-2.559077 72.933683-78.904862 72.933683H156.103673a76.772298 76.772298 0 0 1-78.051837-62.697376 8.956768 8.956768 0 0 1 7.250717-10.236307h692.230221a85.302553 85.302553 0 0 0 88.714655-82.316964V118.727079a9.809794 9.809794 0 0 1 10.236306-8.956768c38.812662 0 68.668555 5.118153 68.668556 72.933683v731.042882z" p-id="2974"></path></svg>