<?xml version="1.0" standalone="no"?><!DOCTYPE svg PUBLIC "-//W3C//DTD SVG 1.1//EN" "http://www.w3.org/Graphics/SVG/1.1/DTD/svg11.dtd"><svg t="1647393180960" class="icon" viewBox="0 0 1024 1024" version="1.1" xmlns="http://www.w3.org/2000/svg" p-id="3075" xmlns:xlink="http://www.w3.org/1999/xlink" width="200" height="200"><defs><style type="text/css"></style></defs><path d="M522.854 33.884L902.47 164.732c14.1 4.85 23.54 18.113 23.54 33.011v402.218c-10.714 238.49-386.18 383.703-402.118 389.764A34.91 34.91 0 0 1 511.505 992c-4.217 0-8.439-0.767-12.387-2.275C483.147 983.664 107.648 838.452 97 601.502V197.743c0-14.898 9.442-28.16 23.503-33.011L500.121 33.884a35.24 35.24 0 0 1 22.733 0z m243.984 299.804c-29.29-29.29-76.777-29.29-106.066 0L459.246 535.213l-95.46-95.46c-29.289-29.289-76.776-29.289-106.065 0-29.29 29.29-29.29 76.777 0 106.067l148.492 148.492c14.645 14.645 33.839 21.967 53.033 21.967l1.152-0.009c18.808-0.287 37.53-7.606 51.881-21.958l254.559-254.558c29.289-29.29 29.289-76.777 0-106.066z" fill="#909399" p-id="3076"></path></svg>