<?xml version="1.0" standalone="no"?><!DOCTYPE svg PUBLIC "-//W3C//DTD SVG 1.1//EN" "http://www.w3.org/Graphics/SVG/1.1/DTD/svg11.dtd"><svg t="1641015979047" class="icon" viewBox="0 0 1024 1024" version="1.1" xmlns="http://www.w3.org/2000/svg" p-id="2139" xmlns:xlink="http://www.w3.org/1999/xlink" width="200" height="200"><defs><style type="text/css"></style></defs><path d="M519.9 647.4c-44.8 7.4-90.4-6.9-122.5-38.3-32.1-31.4-46.6-76.2-39-120 9.4-56.8 56.2-102.7 114.2-112.1 44.9-7.6 90.7 6.7 122.9 38.2 32.2 31.6 46.7 76.5 38.9 120.4-9.7 56.9-56.5 102.6-114.5 111.8M848.4 559l66-40.4c10.5-6.4 15.6-18.6 12.9-30.4L895 349.3c-2.7-11.8-12.8-20.6-25.1-21.9l-77.5-8.4c-7.7-0.8-14.7-4.6-19.5-10.5l-13-16c-4.8-5.9-7-13.5-6.1-21l8.9-75.7c1.4-12-5.1-23.6-16.2-28.9l-131-61.8c-11.1-5.2-24.4-3-33.2 5.5l-55 54c-5.4 5.3-12.8 8.4-20.6 8.4H486c-7.7 0-15.1-3-20.6-8.4l-55-54c-8.7-8.6-22-10.8-33.2-5.5l-130.9 61.8c-11.1 5.3-17.6 16.8-16.2 28.9l8.9 75.8c0.9 7.5-1.3 15-6.1 21L220 308.4c-4.8 5.9-11.8 9.7-19.5 10.5l-77.5 8.5c-12.3 1.3-22.3 10.1-25.1 21.9L65.5 488.1c-2.7 11.8 2.4 24 12.9 30.4l66 40.5c6.5 4 11.2 10.4 12.9 17.8l4.6 19.9c1.7 7.4 0.4 15.1-3.7 21.5l-41.6 64.5c-6.6 10.2-5.8 23.4 1.9 32.9l90.7 111.3c7.7 9.5 20.7 13.1 32.3 9.1l73.5-25.3c7.3-2.5 15.3-2.1 22.2 1.2l18.7 8.8c7 3.3 12.3 9.1 14.8 16.3l25.6 72c4.1 11.4 15.1 19.1 27.4 19.1H569c12.4 0 23.4-7.7 27.4-19.1l25.6-72c2.5-7.1 7.9-13 14.8-16.3l18.7-8.8c6.9-3.3 14.9-3.7 22.2-1.2l73.5 25.3c11.7 4 24.6 0.4 32.3-9.1l90.7-111.3c7.7-9.5 8.4-22.7 1.9-32.9l-41.6-64.5c-4.1-6.4-5.5-14.1-3.8-21.5l4.6-19.8c1.9-7.5 6.5-13.9 13.1-17.9" fill="" p-id="2140"></path></svg>