<svg xmlns="http://www.w3.org/2000/svg" xmlns:xlink="http://www.w3.org/1999/xlink" style="margin:auto;background:#7aceff;display:block;z-index:1;position:relative" width="1920" height="1080" preserveAspectRatio="xMidYMid" viewBox="0 0 1920 1080">
  <g transform="translate(960,540) scale(1,1) translate(-960,-540)"><g transform="translate(-100 416.03196572326607) rotate(0)">
    <animateTransform attributeName="transform" type="translate" keyTimes="0;1" values="-100 416.03196572326607;1920 416.03196572326607" dur="500s" repeatCount="indefinite" begin="-5.139372331517178s"></animateTransform>
    <path d="M84.717,33.597c0.791-2.503,1.186-5.138,1.186-7.773C85.903,11.594,74.308,0,60.079,0 c-9.881,0-18.445,5.534-22.793,13.702c-1.581-0.527-3.426-0.791-5.138-0.791c-9.486,0-17.128,7.642-17.128,17.128 c0,1.186,0.132,2.372,0.395,3.426C6.719,34.783,0,42.424,0,51.515C0,61.66,8.169,69.829,18.314,69.829h63.373 C91.831,69.829,100,61.66,100,51.515C99.868,42.556,93.281,35.046,84.717,33.597z" fill="#bddeff" transform="scale(0.55)"></path>
  </g><g transform="translate(-100 596.4001678117764) rotate(0)">
    <animateTransform attributeName="transform" type="translate" keyTimes="0;1" values="-100 596.4001678117764;1920 596.4001678117764" dur="500s" repeatCount="indefinite" begin="-130.3016475134896s"></animateTransform>
    <path d="M84.717,33.597c0.791-2.503,1.186-5.138,1.186-7.773C85.903,11.594,74.308,0,60.079,0 c-9.881,0-18.445,5.534-22.793,13.702c-1.581-0.527-3.426-0.791-5.138-0.791c-9.486,0-17.128,7.642-17.128,17.128 c0,1.186,0.132,2.372,0.395,3.426C6.719,34.783,0,42.424,0,51.515C0,61.66,8.169,69.829,18.314,69.829h63.373 C91.831,69.829,100,61.66,100,51.515C99.868,42.556,93.281,35.046,84.717,33.597z" fill="#bddeff" transform="scale(0.55)"></path>
  </g><g transform="translate(-100 26.545882090192208) rotate(0)">
    <animateTransform attributeName="transform" type="translate" keyTimes="0;1" values="-100 26.545882090192208;1920 26.545882090192208" dur="500s" repeatCount="indefinite" begin="-418.3960343898864s"></animateTransform>
    <path d="M84.717,33.597c0.791-2.503,1.186-5.138,1.186-7.773C85.903,11.594,74.308,0,60.079,0 c-9.881,0-18.445,5.534-22.793,13.702c-1.581-0.527-3.426-0.791-5.138-0.791c-9.486,0-17.128,7.642-17.128,17.128 c0,1.186,0.132,2.372,0.395,3.426C6.719,34.783,0,42.424,0,51.515C0,61.66,8.169,69.829,18.314,69.829h63.373 C91.831,69.829,100,61.66,100,51.515C99.868,42.556,93.281,35.046,84.717,33.597z" fill="#bddeff" transform="scale(0.55)"></path>
  </g><g transform="translate(-100 571.769019413317) rotate(0)">
    <animateTransform attributeName="transform" type="translate" keyTimes="0;1" values="-100 571.769019413317;1920 571.769019413317" dur="500s" repeatCount="indefinite" begin="-479.907328466289s"></animateTransform>
    <path d="M84.717,33.597c0.791-2.503,1.186-5.138,1.186-7.773C85.903,11.594,74.308,0,60.079,0 c-9.881,0-18.445,5.534-22.793,13.702c-1.581-0.527-3.426-0.791-5.138-0.791c-9.486,0-17.128,7.642-17.128,17.128 c0,1.186,0.132,2.372,0.395,3.426C6.719,34.783,0,42.424,0,51.515C0,61.66,8.169,69.829,18.314,69.829h63.373 C91.831,69.829,100,61.66,100,51.515C99.868,42.556,93.281,35.046,84.717,33.597z" fill="#bddeff" transform="scale(0.55)"></path>
  </g><g transform="translate(-100 299.0294986971487) rotate(0)">
    <animateTransform attributeName="transform" type="translate" keyTimes="0;1" values="-100 299.0294986971487;1920 299.0294986971487" dur="500s" repeatCount="indefinite" begin="-227.05389635543605s"></animateTransform>
    <path d="M84.717,33.597c0.791-2.503,1.186-5.138,1.186-7.773C85.903,11.594,74.308,0,60.079,0 c-9.881,0-18.445,5.534-22.793,13.702c-1.581-0.527-3.426-0.791-5.138-0.791c-9.486,0-17.128,7.642-17.128,17.128 c0,1.186,0.132,2.372,0.395,3.426C6.719,34.783,0,42.424,0,51.515C0,61.66,8.169,69.829,18.314,69.829h63.373 C91.831,69.829,100,61.66,100,51.515C99.868,42.556,93.281,35.046,84.717,33.597z" fill="#bddeff" transform="scale(0.55)"></path>
  </g><g transform="translate(-100 963.5414388315442) rotate(0)">
    <animateTransform attributeName="transform" type="translate" keyTimes="0;1" values="-100 963.5414388315442;1920 963.5414388315442" dur="500s" repeatCount="indefinite" begin="-257.66135282842185s"></animateTransform>
    <path d="M84.717,33.597c0.791-2.503,1.186-5.138,1.186-7.773C85.903,11.594,74.308,0,60.079,0 c-9.881,0-18.445,5.534-22.793,13.702c-1.581-0.527-3.426-0.791-5.138-0.791c-9.486,0-17.128,7.642-17.128,17.128 c0,1.186,0.132,2.372,0.395,3.426C6.719,34.783,0,42.424,0,51.515C0,61.66,8.169,69.829,18.314,69.829h63.373 C91.831,69.829,100,61.66,100,51.515C99.868,42.556,93.281,35.046,84.717,33.597z" fill="#bddeff" transform="scale(0.55)"></path>
  </g><g transform="translate(-100 381.5964835751399) rotate(0)">
    <animateTransform attributeName="transform" type="translate" keyTimes="0;1" values="-100 381.5964835751399;1920 381.5964835751399" dur="500s" repeatCount="indefinite" begin="-307.0477827472562s"></animateTransform>
    <path d="M84.717,33.597c0.791-2.503,1.186-5.138,1.186-7.773C85.903,11.594,74.308,0,60.079,0 c-9.881,0-18.445,5.534-22.793,13.702c-1.581-0.527-3.426-0.791-5.138-0.791c-9.486,0-17.128,7.642-17.128,17.128 c0,1.186,0.132,2.372,0.395,3.426C6.719,34.783,0,42.424,0,51.515C0,61.66,8.169,69.829,18.314,69.829h63.373 C91.831,69.829,100,61.66,100,51.515C99.868,42.556,93.281,35.046,84.717,33.597z" fill="#bddeff" transform="scale(0.55)"></path>
  </g><g transform="translate(-100 645.4789577105932) rotate(0)">
    <animateTransform attributeName="transform" type="translate" keyTimes="0;1" values="-100 645.4789577105932;1920 645.4789577105932" dur="500s" repeatCount="indefinite" begin="-202.62184460542164s"></animateTransform>
    <path d="M84.717,33.597c0.791-2.503,1.186-5.138,1.186-7.773C85.903,11.594,74.308,0,60.079,0 c-9.881,0-18.445,5.534-22.793,13.702c-1.581-0.527-3.426-0.791-5.138-0.791c-9.486,0-17.128,7.642-17.128,17.128 c0,1.186,0.132,2.372,0.395,3.426C6.719,34.783,0,42.424,0,51.515C0,61.66,8.169,69.829,18.314,69.829h63.373 C91.831,69.829,100,61.66,100,51.515C99.868,42.556,93.281,35.046,84.717,33.597z" fill="#bddeff" transform="scale(0.55)"></path>
  </g><g transform="translate(-100 869.0735193051235) rotate(0)">
    <animateTransform attributeName="transform" type="translate" keyTimes="0;1" values="-100 869.0735193051235;1920 869.0735193051235" dur="500s" repeatCount="indefinite" begin="-255.24368861928292s"></animateTransform>
    <path d="M84.717,33.597c0.791-2.503,1.186-5.138,1.186-7.773C85.903,11.594,74.308,0,60.079,0 c-9.881,0-18.445,5.534-22.793,13.702c-1.581-0.527-3.426-0.791-5.138-0.791c-9.486,0-17.128,7.642-17.128,17.128 c0,1.186,0.132,2.372,0.395,3.426C6.719,34.783,0,42.424,0,51.515C0,61.66,8.169,69.829,18.314,69.829h63.373 C91.831,69.829,100,61.66,100,51.515C99.868,42.556,93.281,35.046,84.717,33.597z" fill="#bddeff" transform="scale(0.55)"></path>
  </g><g transform="translate(-100 361.72520676524846) rotate(0)">
    <animateTransform attributeName="transform" type="translate" keyTimes="0;1" values="-100 361.72520676524846;1920 361.72520676524846" dur="500s" repeatCount="indefinite" begin="-483.79414705548476s"></animateTransform>
    <path d="M84.717,33.597c0.791-2.503,1.186-5.138,1.186-7.773C85.903,11.594,74.308,0,60.079,0 c-9.881,0-18.445,5.534-22.793,13.702c-1.581-0.527-3.426-0.791-5.138-0.791c-9.486,0-17.128,7.642-17.128,17.128 c0,1.186,0.132,2.372,0.395,3.426C6.719,34.783,0,42.424,0,51.515C0,61.66,8.169,69.829,18.314,69.829h63.373 C91.831,69.829,100,61.66,100,51.515C99.868,42.556,93.281,35.046,84.717,33.597z" fill="#bddeff" transform="scale(0.55)"></path>
  </g><g transform="translate(-100 86.68805096063784) rotate(0)">
    <animateTransform attributeName="transform" type="translate" keyTimes="0;1" values="-100 86.68805096063784;1920 86.68805096063784" dur="500s" repeatCount="indefinite" begin="-320.8829128692832s"></animateTransform>
    <path d="M84.717,33.597c0.791-2.503,1.186-5.138,1.186-7.773C85.903,11.594,74.308,0,60.079,0 c-9.881,0-18.445,5.534-22.793,13.702c-1.581-0.527-3.426-0.791-5.138-0.791c-9.486,0-17.128,7.642-17.128,17.128 c0,1.186,0.132,2.372,0.395,3.426C6.719,34.783,0,42.424,0,51.515C0,61.66,8.169,69.829,18.314,69.829h63.373 C91.831,69.829,100,61.66,100,51.515C99.868,42.556,93.281,35.046,84.717,33.597z" fill="#bddeff" transform="scale(0.55)"></path>
  </g><g transform="translate(-100 488.9772963132972) rotate(0)">
    <animateTransform attributeName="transform" type="translate" keyTimes="0;1" values="-100 488.9772963132972;1920 488.9772963132972" dur="250s" repeatCount="indefinite" begin="-170.39139507921476s"></animateTransform>
    <path d="M84.717,33.597c0.791-2.503,1.186-5.138,1.186-7.773C85.903,11.594,74.308,0,60.079,0 c-9.881,0-18.445,5.534-22.793,13.702c-1.581-0.527-3.426-0.791-5.138-0.791c-9.486,0-17.128,7.642-17.128,17.128 c0,1.186,0.132,2.372,0.395,3.426C6.719,34.783,0,42.424,0,51.515C0,61.66,8.169,69.829,18.314,69.829h63.373 C91.831,69.829,100,61.66,100,51.515C99.868,42.556,93.281,35.046,84.717,33.597z" fill="#ffffff" transform="scale(0.7)"></path>
  </g><g transform="translate(-100 4.576774043616565) rotate(0)">
    <animateTransform attributeName="transform" type="translate" keyTimes="0;1" values="-100 4.576774043616565;1920 4.576774043616565" dur="250s" repeatCount="indefinite" begin="-316.15263864899003s"></animateTransform>
    <path d="M84.717,33.597c0.791-2.503,1.186-5.138,1.186-7.773C85.903,11.594,74.308,0,60.079,0 c-9.881,0-18.445,5.534-22.793,13.702c-1.581-0.527-3.426-0.791-5.138-0.791c-9.486,0-17.128,7.642-17.128,17.128 c0,1.186,0.132,2.372,0.395,3.426C6.719,34.783,0,42.424,0,51.515C0,61.66,8.169,69.829,18.314,69.829h63.373 C91.831,69.829,100,61.66,100,51.515C99.868,42.556,93.281,35.046,84.717,33.597z" fill="#ffffff" transform="scale(0.7)"></path>
  </g><g transform="translate(-100 214.60993590372678) rotate(0)">
    <animateTransform attributeName="transform" type="translate" keyTimes="0;1" values="-100 214.60993590372678;1920 214.60993590372678" dur="250s" repeatCount="indefinite" begin="-398.4521377828001s"></animateTransform>
    <path d="M84.717,33.597c0.791-2.503,1.186-5.138,1.186-7.773C85.903,11.594,74.308,0,60.079,0 c-9.881,0-18.445,5.534-22.793,13.702c-1.581-0.527-3.426-0.791-5.138-0.791c-9.486,0-17.128,7.642-17.128,17.128 c0,1.186,0.132,2.372,0.395,3.426C6.719,34.783,0,42.424,0,51.515C0,61.66,8.169,69.829,18.314,69.829h63.373 C91.831,69.829,100,61.66,100,51.515C99.868,42.556,93.281,35.046,84.717,33.597z" fill="#ffffff" transform="scale(0.7)"></path>
  </g><g transform="translate(-100 1078.2795968790304) rotate(0)">
    <animateTransform attributeName="transform" type="translate" keyTimes="0;1" values="-100 1078.2795968790304;1920 1078.2795968790304" dur="250s" repeatCount="indefinite" begin="-91.39136730030228s"></animateTransform>
    <path d="M84.717,33.597c0.791-2.503,1.186-5.138,1.186-7.773C85.903,11.594,74.308,0,60.079,0 c-9.881,0-18.445,5.534-22.793,13.702c-1.581-0.527-3.426-0.791-5.138-0.791c-9.486,0-17.128,7.642-17.128,17.128 c0,1.186,0.132,2.372,0.395,3.426C6.719,34.783,0,42.424,0,51.515C0,61.66,8.169,69.829,18.314,69.829h63.373 C91.831,69.829,100,61.66,100,51.515C99.868,42.556,93.281,35.046,84.717,33.597z" fill="#ffffff" transform="scale(0.7)"></path>
  </g><g transform="translate(-100 696.282800231443) rotate(0)">
    <animateTransform attributeName="transform" type="translate" keyTimes="0;1" values="-100 696.282800231443;1920 696.282800231443" dur="250s" repeatCount="indefinite" begin="-9.791027044726896s"></animateTransform>
    <path d="M84.717,33.597c0.791-2.503,1.186-5.138,1.186-7.773C85.903,11.594,74.308,0,60.079,0 c-9.881,0-18.445,5.534-22.793,13.702c-1.581-0.527-3.426-0.791-5.138-0.791c-9.486,0-17.128,7.642-17.128,17.128 c0,1.186,0.132,2.372,0.395,3.426C6.719,34.783,0,42.424,0,51.515C0,61.66,8.169,69.829,18.314,69.829h63.373 C91.831,69.829,100,61.66,100,51.515C99.868,42.556,93.281,35.046,84.717,33.597z" fill="#ffffff" transform="scale(0.7)"></path>
  </g><g transform="translate(-100 561.7712540738951) rotate(0)">
    <animateTransform attributeName="transform" type="translate" keyTimes="0;1" values="-100 561.7712540738951;1920 561.7712540738951" dur="250s" repeatCount="indefinite" begin="-193.89859611923643s"></animateTransform>
    <path d="M84.717,33.597c0.791-2.503,1.186-5.138,1.186-7.773C85.903,11.594,74.308,0,60.079,0 c-9.881,0-18.445,5.534-22.793,13.702c-1.581-0.527-3.426-0.791-5.138-0.791c-9.486,0-17.128,7.642-17.128,17.128 c0,1.186,0.132,2.372,0.395,3.426C6.719,34.783,0,42.424,0,51.515C0,61.66,8.169,69.829,18.314,69.829h63.373 C91.831,69.829,100,61.66,100,51.515C99.868,42.556,93.281,35.046,84.717,33.597z" fill="#ffffff" transform="scale(0.7)"></path>
  </g><g transform="translate(-100 1027.434371957216) rotate(0)">
    <animateTransform attributeName="transform" type="translate" keyTimes="0;1" values="-100 1027.434371957216;1920 1027.434371957216" dur="250s" repeatCount="indefinite" begin="-208.13490311748794s"></animateTransform>
    <path d="M84.717,33.597c0.791-2.503,1.186-5.138,1.186-7.773C85.903,11.594,74.308,0,60.079,0 c-9.881,0-18.445,5.534-22.793,13.702c-1.581-0.527-3.426-0.791-5.138-0.791c-9.486,0-17.128,7.642-17.128,17.128 c0,1.186,0.132,2.372,0.395,3.426C6.719,34.783,0,42.424,0,51.515C0,61.66,8.169,69.829,18.314,69.829h63.373 C91.831,69.829,100,61.66,100,51.515C99.868,42.556,93.281,35.046,84.717,33.597z" fill="#ffffff" transform="scale(0.7)"></path>
  </g><g transform="translate(-100 723.5576871943198) rotate(0)">
    <animateTransform attributeName="transform" type="translate" keyTimes="0;1" values="-100 723.5576871943198;1920 723.5576871943198" dur="250s" repeatCount="indefinite" begin="-397.71421883595184s"></animateTransform>
    <path d="M84.717,33.597c0.791-2.503,1.186-5.138,1.186-7.773C85.903,11.594,74.308,0,60.079,0 c-9.881,0-18.445,5.534-22.793,13.702c-1.581-0.527-3.426-0.791-5.138-0.791c-9.486,0-17.128,7.642-17.128,17.128 c0,1.186,0.132,2.372,0.395,3.426C6.719,34.783,0,42.424,0,51.515C0,61.66,8.169,69.829,18.314,69.829h63.373 C91.831,69.829,100,61.66,100,51.515C99.868,42.556,93.281,35.046,84.717,33.597z" fill="#ffffff" transform="scale(0.7)"></path>
  </g><g transform="translate(-100 138.14742803728817) rotate(0)">
    <animateTransform attributeName="transform" type="translate" keyTimes="0;1" values="-100 138.14742803728817;1920 138.14742803728817" dur="250s" repeatCount="indefinite" begin="-468.4075429967608s"></animateTransform>
    <path d="M84.717,33.597c0.791-2.503,1.186-5.138,1.186-7.773C85.903,11.594,74.308,0,60.079,0 c-9.881,0-18.445,5.534-22.793,13.702c-1.581-0.527-3.426-0.791-5.138-0.791c-9.486,0-17.128,7.642-17.128,17.128 c0,1.186,0.132,2.372,0.395,3.426C6.719,34.783,0,42.424,0,51.515C0,61.66,8.169,69.829,18.314,69.829h63.373 C91.831,69.829,100,61.66,100,51.515C99.868,42.556,93.281,35.046,84.717,33.597z" fill="#ffffff" transform="scale(0.7)"></path>
  </g><g transform="translate(-100 1064.1245308500543) rotate(0)">
    <animateTransform attributeName="transform" type="translate" keyTimes="0;1" values="-100 1064.1245308500543;1920 1064.1245308500543" dur="250s" repeatCount="indefinite" begin="-127.52573851087668s"></animateTransform>
    <path d="M84.717,33.597c0.791-2.503,1.186-5.138,1.186-7.773C85.903,11.594,74.308,0,60.079,0 c-9.881,0-18.445,5.534-22.793,13.702c-1.581-0.527-3.426-0.791-5.138-0.791c-9.486,0-17.128,7.642-17.128,17.128 c0,1.186,0.132,2.372,0.395,3.426C6.719,34.783,0,42.424,0,51.515C0,61.66,8.169,69.829,18.314,69.829h63.373 C91.831,69.829,100,61.66,100,51.515C99.868,42.556,93.281,35.046,84.717,33.597z" fill="#ffffff" transform="scale(0.7)"></path>
  </g><g transform="translate(-100 867.7256355602567) rotate(0)">
    <animateTransform attributeName="transform" type="translate" keyTimes="0;1" values="-100 867.7256355602567;1920 867.7256355602567" dur="250s" repeatCount="indefinite" begin="-404.38720114464013s"></animateTransform>
    <path d="M84.717,33.597c0.791-2.503,1.186-5.138,1.186-7.773C85.903,11.594,74.308,0,60.079,0 c-9.881,0-18.445,5.534-22.793,13.702c-1.581-0.527-3.426-0.791-5.138-0.791c-9.486,0-17.128,7.642-17.128,17.128 c0,1.186,0.132,2.372,0.395,3.426C6.719,34.783,0,42.424,0,51.515C0,61.66,8.169,69.829,18.314,69.829h63.373 C91.831,69.829,100,61.66,100,51.515C99.868,42.556,93.281,35.046,84.717,33.597z" fill="#ffffff" transform="scale(0.7)"></path>
  </g><g transform="translate(-100 585.4335678795345) rotate(0)">
    <animateTransform attributeName="transform" type="translate" keyTimes="0;1" values="-100 585.4335678795345;1920 585.4335678795345" dur="166.66666666666666s" repeatCount="indefinite" begin="-232.32351534757112s"></animateTransform>
    <path d="M84.717,33.597c0.791-2.503,1.186-5.138,1.186-7.773C85.903,11.594,74.308,0,60.079,0 c-9.881,0-18.445,5.534-22.793,13.702c-1.581-0.527-3.426-0.791-5.138-0.791c-9.486,0-17.128,7.642-17.128,17.128 c0,1.186,0.132,2.372,0.395,3.426C6.719,34.783,0,42.424,0,51.515C0,61.66,8.169,69.829,18.314,69.829h63.373 C91.831,69.829,100,61.66,100,51.515C99.868,42.556,93.281,35.046,84.717,33.597z" fill="#f1f2f3" transform="scale(0.85)"></path>
  </g><g transform="translate(-100 55.826384663633284) rotate(0)">
    <animateTransform attributeName="transform" type="translate" keyTimes="0;1" values="-100 55.826384663633284;1920 55.826384663633284" dur="166.66666666666666s" repeatCount="indefinite" begin="-310.35651449581314s"></animateTransform>
    <path d="M84.717,33.597c0.791-2.503,1.186-5.138,1.186-7.773C85.903,11.594,74.308,0,60.079,0 c-9.881,0-18.445,5.534-22.793,13.702c-1.581-0.527-3.426-0.791-5.138-0.791c-9.486,0-17.128,7.642-17.128,17.128 c0,1.186,0.132,2.372,0.395,3.426C6.719,34.783,0,42.424,0,51.515C0,61.66,8.169,69.829,18.314,69.829h63.373 C91.831,69.829,100,61.66,100,51.515C99.868,42.556,93.281,35.046,84.717,33.597z" fill="#f1f2f3" transform="scale(0.85)"></path>
  </g><g transform="translate(-100 550.8735693730529) rotate(0)">
    <animateTransform attributeName="transform" type="translate" keyTimes="0;1" values="-100 550.8735693730529;1920 550.8735693730529" dur="166.66666666666666s" repeatCount="indefinite" begin="-250.08402103222537s"></animateTransform>
    <path d="M84.717,33.597c0.791-2.503,1.186-5.138,1.186-7.773C85.903,11.594,74.308,0,60.079,0 c-9.881,0-18.445,5.534-22.793,13.702c-1.581-0.527-3.426-0.791-5.138-0.791c-9.486,0-17.128,7.642-17.128,17.128 c0,1.186,0.132,2.372,0.395,3.426C6.719,34.783,0,42.424,0,51.515C0,61.66,8.169,69.829,18.314,69.829h63.373 C91.831,69.829,100,61.66,100,51.515C99.868,42.556,93.281,35.046,84.717,33.597z" fill="#f1f2f3" transform="scale(0.85)"></path>
  </g><g transform="translate(-100 468.8701205905754) rotate(0)">
    <animateTransform attributeName="transform" type="translate" keyTimes="0;1" values="-100 468.8701205905754;1920 468.8701205905754" dur="166.66666666666666s" repeatCount="indefinite" begin="-487.8153302121583s"></animateTransform>
    <path d="M84.717,33.597c0.791-2.503,1.186-5.138,1.186-7.773C85.903,11.594,74.308,0,60.079,0 c-9.881,0-18.445,5.534-22.793,13.702c-1.581-0.527-3.426-0.791-5.138-0.791c-9.486,0-17.128,7.642-17.128,17.128 c0,1.186,0.132,2.372,0.395,3.426C6.719,34.783,0,42.424,0,51.515C0,61.66,8.169,69.829,18.314,69.829h63.373 C91.831,69.829,100,61.66,100,51.515C99.868,42.556,93.281,35.046,84.717,33.597z" fill="#f1f2f3" transform="scale(0.85)"></path>
  </g><g transform="translate(-100 507.2526567834844) rotate(0)">
    <animateTransform attributeName="transform" type="translate" keyTimes="0;1" values="-100 507.2526567834844;1920 507.2526567834844" dur="166.66666666666666s" repeatCount="indefinite" begin="-233.64601277250242s"></animateTransform>
    <path d="M84.717,33.597c0.791-2.503,1.186-5.138,1.186-7.773C85.903,11.594,74.308,0,60.079,0 c-9.881,0-18.445,5.534-22.793,13.702c-1.581-0.527-3.426-0.791-5.138-0.791c-9.486,0-17.128,7.642-17.128,17.128 c0,1.186,0.132,2.372,0.395,3.426C6.719,34.783,0,42.424,0,51.515C0,61.66,8.169,69.829,18.314,69.829h63.373 C91.831,69.829,100,61.66,100,51.515C99.868,42.556,93.281,35.046,84.717,33.597z" fill="#f1f2f3" transform="scale(0.85)"></path>
  </g><g transform="translate(-100 345.3058813907401) rotate(0)">
    <animateTransform attributeName="transform" type="translate" keyTimes="0;1" values="-100 345.3058813907401;1920 345.3058813907401" dur="166.66666666666666s" repeatCount="indefinite" begin="-487.12855908306886s"></animateTransform>
    <path d="M84.717,33.597c0.791-2.503,1.186-5.138,1.186-7.773C85.903,11.594,74.308,0,60.079,0 c-9.881,0-18.445,5.534-22.793,13.702c-1.581-0.527-3.426-0.791-5.138-0.791c-9.486,0-17.128,7.642-17.128,17.128 c0,1.186,0.132,2.372,0.395,3.426C6.719,34.783,0,42.424,0,51.515C0,61.66,8.169,69.829,18.314,69.829h63.373 C91.831,69.829,100,61.66,100,51.515C99.868,42.556,93.281,35.046,84.717,33.597z" fill="#f1f2f3" transform="scale(0.85)"></path>
  </g><g transform="translate(-100 1031.1827146601443) rotate(0)">
    <animateTransform attributeName="transform" type="translate" keyTimes="0;1" values="-100 1031.1827146601443;1920 1031.1827146601443" dur="166.66666666666666s" repeatCount="indefinite" begin="-10.720882299359303s"></animateTransform>
    <path d="M84.717,33.597c0.791-2.503,1.186-5.138,1.186-7.773C85.903,11.594,74.308,0,60.079,0 c-9.881,0-18.445,5.534-22.793,13.702c-1.581-0.527-3.426-0.791-5.138-0.791c-9.486,0-17.128,7.642-17.128,17.128 c0,1.186,0.132,2.372,0.395,3.426C6.719,34.783,0,42.424,0,51.515C0,61.66,8.169,69.829,18.314,69.829h63.373 C91.831,69.829,100,61.66,100,51.515C99.868,42.556,93.281,35.046,84.717,33.597z" fill="#f1f2f3" transform="scale(0.85)"></path>
  </g><g transform="translate(-100 18.27432163445976) rotate(0)">
    <animateTransform attributeName="transform" type="translate" keyTimes="0;1" values="-100 18.27432163445976;1920 18.27432163445976" dur="166.66666666666666s" repeatCount="indefinite" begin="-239.34624845076246s"></animateTransform>
    <path d="M84.717,33.597c0.791-2.503,1.186-5.138,1.186-7.773C85.903,11.594,74.308,0,60.079,0 c-9.881,0-18.445,5.534-22.793,13.702c-1.581-0.527-3.426-0.791-5.138-0.791c-9.486,0-17.128,7.642-17.128,17.128 c0,1.186,0.132,2.372,0.395,3.426C6.719,34.783,0,42.424,0,51.515C0,61.66,8.169,69.829,18.314,69.829h63.373 C91.831,69.829,100,61.66,100,51.515C99.868,42.556,93.281,35.046,84.717,33.597z" fill="#f1f2f3" transform="scale(0.85)"></path>
  </g><g transform="translate(-100 254.00652063210185) rotate(0)">
    <animateTransform attributeName="transform" type="translate" keyTimes="0;1" values="-100 254.00652063210185;1920 254.00652063210185" dur="166.66666666666666s" repeatCount="indefinite" begin="-97.67550616205378s"></animateTransform>
    <path d="M84.717,33.597c0.791-2.503,1.186-5.138,1.186-7.773C85.903,11.594,74.308,0,60.079,0 c-9.881,0-18.445,5.534-22.793,13.702c-1.581-0.527-3.426-0.791-5.138-0.791c-9.486,0-17.128,7.642-17.128,17.128 c0,1.186,0.132,2.372,0.395,3.426C6.719,34.783,0,42.424,0,51.515C0,61.66,8.169,69.829,18.314,69.829h63.373 C91.831,69.829,100,61.66,100,51.515C99.868,42.556,93.281,35.046,84.717,33.597z" fill="#f1f2f3" transform="scale(0.85)"></path>
  </g><g transform="translate(-100 853.1521302679544) rotate(0)">
    <animateTransform attributeName="transform" type="translate" keyTimes="0;1" values="-100 853.1521302679544;1920 853.1521302679544" dur="166.66666666666666s" repeatCount="indefinite" begin="-215.52668400815244s"></animateTransform>
    <path d="M84.717,33.597c0.791-2.503,1.186-5.138,1.186-7.773C85.903,11.594,74.308,0,60.079,0 c-9.881,0-18.445,5.534-22.793,13.702c-1.581-0.527-3.426-0.791-5.138-0.791c-9.486,0-17.128,7.642-17.128,17.128 c0,1.186,0.132,2.372,0.395,3.426C6.719,34.783,0,42.424,0,51.515C0,61.66,8.169,69.829,18.314,69.829h63.373 C91.831,69.829,100,61.66,100,51.515C99.868,42.556,93.281,35.046,84.717,33.597z" fill="#f1f2f3" transform="scale(0.85)"></path>
  </g><g transform="translate(-100 120.29600539710484) rotate(0)">
    <animateTransform attributeName="transform" type="translate" keyTimes="0;1" values="-100 120.29600539710484;1920 120.29600539710484" dur="166.66666666666666s" repeatCount="indefinite" begin="-121.43545841045444s"></animateTransform>
    <path d="M84.717,33.597c0.791-2.503,1.186-5.138,1.186-7.773C85.903,11.594,74.308,0,60.079,0 c-9.881,0-18.445,5.534-22.793,13.702c-1.581-0.527-3.426-0.791-5.138-0.791c-9.486,0-17.128,7.642-17.128,17.128 c0,1.186,0.132,2.372,0.395,3.426C6.719,34.783,0,42.424,0,51.515C0,61.66,8.169,69.829,18.314,69.829h63.373 C91.831,69.829,100,61.66,100,51.515C99.868,42.556,93.281,35.046,84.717,33.597z" fill="#f1f2f3" transform="scale(0.85)"></path>
  </g><g transform="translate(-100 739.4135223183714) rotate(0)">
    <animateTransform attributeName="transform" type="translate" keyTimes="0;1" values="-100 739.4135223183714;1920 739.4135223183714" dur="125s" repeatCount="indefinite" begin="-433.4250149061785s"></animateTransform>
    <path d="M84.717,33.597c0.791-2.503,1.186-5.138,1.186-7.773C85.903,11.594,74.308,0,60.079,0 c-9.881,0-18.445,5.534-22.793,13.702c-1.581-0.527-3.426-0.791-5.138-0.791c-9.486,0-17.128,7.642-17.128,17.128 c0,1.186,0.132,2.372,0.395,3.426C6.719,34.783,0,42.424,0,51.515C0,61.66,8.169,69.829,18.314,69.829h63.373 C91.831,69.829,100,61.66,100,51.515C99.868,42.556,93.281,35.046,84.717,33.597z" fill="#bddeff" transform="scale(1)"></path>
  </g><g transform="translate(-100 239.0788419164232) rotate(0)">
    <animateTransform attributeName="transform" type="translate" keyTimes="0;1" values="-100 239.0788419164232;1920 239.0788419164232" dur="125s" repeatCount="indefinite" begin="-407.9383077190322s"></animateTransform>
    <path d="M84.717,33.597c0.791-2.503,1.186-5.138,1.186-7.773C85.903,11.594,74.308,0,60.079,0 c-9.881,0-18.445,5.534-22.793,13.702c-1.581-0.527-3.426-0.791-5.138-0.791c-9.486,0-17.128,7.642-17.128,17.128 c0,1.186,0.132,2.372,0.395,3.426C6.719,34.783,0,42.424,0,51.515C0,61.66,8.169,69.829,18.314,69.829h63.373 C91.831,69.829,100,61.66,100,51.515C99.868,42.556,93.281,35.046,84.717,33.597z" fill="#bddeff" transform="scale(1)"></path>
  </g><g transform="translate(-100 573.1972400632184) rotate(0)">
    <animateTransform attributeName="transform" type="translate" keyTimes="0;1" values="-100 573.1972400632184;1920 573.1972400632184" dur="125s" repeatCount="indefinite" begin="-456.49760543175864s"></animateTransform>
    <path d="M84.717,33.597c0.791-2.503,1.186-5.138,1.186-7.773C85.903,11.594,74.308,0,60.079,0 c-9.881,0-18.445,5.534-22.793,13.702c-1.581-0.527-3.426-0.791-5.138-0.791c-9.486,0-17.128,7.642-17.128,17.128 c0,1.186,0.132,2.372,0.395,3.426C6.719,34.783,0,42.424,0,51.515C0,61.66,8.169,69.829,18.314,69.829h63.373 C91.831,69.829,100,61.66,100,51.515C99.868,42.556,93.281,35.046,84.717,33.597z" fill="#bddeff" transform="scale(1)"></path>
  </g><g transform="translate(-100 915.5433684236687) rotate(0)">
    <animateTransform attributeName="transform" type="translate" keyTimes="0;1" values="-100 915.5433684236687;1920 915.5433684236687" dur="125s" repeatCount="indefinite" begin="-40.03727141414903s"></animateTransform>
    <path d="M84.717,33.597c0.791-2.503,1.186-5.138,1.186-7.773C85.903,11.594,74.308,0,60.079,0 c-9.881,0-18.445,5.534-22.793,13.702c-1.581-0.527-3.426-0.791-5.138-0.791c-9.486,0-17.128,7.642-17.128,17.128 c0,1.186,0.132,2.372,0.395,3.426C6.719,34.783,0,42.424,0,51.515C0,61.66,8.169,69.829,18.314,69.829h63.373 C91.831,69.829,100,61.66,100,51.515C99.868,42.556,93.281,35.046,84.717,33.597z" fill="#bddeff" transform="scale(1)"></path>
  </g><g transform="translate(-100 824.8766336499561) rotate(0)">
    <animateTransform attributeName="transform" type="translate" keyTimes="0;1" values="-100 824.8766336499561;1920 824.8766336499561" dur="125s" repeatCount="indefinite" begin="-16.039906214160293s"></animateTransform>
    <path d="M84.717,33.597c0.791-2.503,1.186-5.138,1.186-7.773C85.903,11.594,74.308,0,60.079,0 c-9.881,0-18.445,5.534-22.793,13.702c-1.581-0.527-3.426-0.791-5.138-0.791c-9.486,0-17.128,7.642-17.128,17.128 c0,1.186,0.132,2.372,0.395,3.426C6.719,34.783,0,42.424,0,51.515C0,61.66,8.169,69.829,18.314,69.829h63.373 C91.831,69.829,100,61.66,100,51.515C99.868,42.556,93.281,35.046,84.717,33.597z" fill="#bddeff" transform="scale(1)"></path>
  </g><g transform="translate(-100 499.265059924676) rotate(0)">
    <animateTransform attributeName="transform" type="translate" keyTimes="0;1" values="-100 499.265059924676;1920 499.265059924676" dur="125s" repeatCount="indefinite" begin="-35.858363803996426s"></animateTransform>
    <path d="M84.717,33.597c0.791-2.503,1.186-5.138,1.186-7.773C85.903,11.594,74.308,0,60.079,0 c-9.881,0-18.445,5.534-22.793,13.702c-1.581-0.527-3.426-0.791-5.138-0.791c-9.486,0-17.128,7.642-17.128,17.128 c0,1.186,0.132,2.372,0.395,3.426C6.719,34.783,0,42.424,0,51.515C0,61.66,8.169,69.829,18.314,69.829h63.373 C91.831,69.829,100,61.66,100,51.515C99.868,42.556,93.281,35.046,84.717,33.597z" fill="#bddeff" transform="scale(1)"></path>
  </g><g transform="translate(-100 1022.1802798581422) rotate(0)">
    <animateTransform attributeName="transform" type="translate" keyTimes="0;1" values="-100 1022.1802798581422;1920 1022.1802798581422" dur="125s" repeatCount="indefinite" begin="-190.07909527181744s"></animateTransform>
    <path d="M84.717,33.597c0.791-2.503,1.186-5.138,1.186-7.773C85.903,11.594,74.308,0,60.079,0 c-9.881,0-18.445,5.534-22.793,13.702c-1.581-0.527-3.426-0.791-5.138-0.791c-9.486,0-17.128,7.642-17.128,17.128 c0,1.186,0.132,2.372,0.395,3.426C6.719,34.783,0,42.424,0,51.515C0,61.66,8.169,69.829,18.314,69.829h63.373 C91.831,69.829,100,61.66,100,51.515C99.868,42.556,93.281,35.046,84.717,33.597z" fill="#bddeff" transform="scale(1)"></path>
  </g><g transform="translate(-100 1062.112161307141) rotate(0)">
    <animateTransform attributeName="transform" type="translate" keyTimes="0;1" values="-100 1062.112161307141;1920 1062.112161307141" dur="125s" repeatCount="indefinite" begin="-108.16335769140706s"></animateTransform>
    <path d="M84.717,33.597c0.791-2.503,1.186-5.138,1.186-7.773C85.903,11.594,74.308,0,60.079,0 c-9.881,0-18.445,5.534-22.793,13.702c-1.581-0.527-3.426-0.791-5.138-0.791c-9.486,0-17.128,7.642-17.128,17.128 c0,1.186,0.132,2.372,0.395,3.426C6.719,34.783,0,42.424,0,51.515C0,61.66,8.169,69.829,18.314,69.829h63.373 C91.831,69.829,100,61.66,100,51.515C99.868,42.556,93.281,35.046,84.717,33.597z" fill="#bddeff" transform="scale(1)"></path>
  </g><g transform="translate(-100 249.76500277280388) rotate(0)">
    <animateTransform attributeName="transform" type="translate" keyTimes="0;1" values="-100 249.76500277280388;1920 249.76500277280388" dur="125s" repeatCount="indefinite" begin="-360.72984703184443s"></animateTransform>
    <path d="M84.717,33.597c0.791-2.503,1.186-5.138,1.186-7.773C85.903,11.594,74.308,0,60.079,0 c-9.881,0-18.445,5.534-22.793,13.702c-1.581-0.527-3.426-0.791-5.138-0.791c-9.486,0-17.128,7.642-17.128,17.128 c0,1.186,0.132,2.372,0.395,3.426C6.719,34.783,0,42.424,0,51.515C0,61.66,8.169,69.829,18.314,69.829h63.373 C91.831,69.829,100,61.66,100,51.515C99.868,42.556,93.281,35.046,84.717,33.597z" fill="#bddeff" transform="scale(1)"></path>
  </g><g transform="translate(-100 989.5257835559386) rotate(0)">
    <animateTransform attributeName="transform" type="translate" keyTimes="0;1" values="-100 989.5257835559386;1920 989.5257835559386" dur="125s" repeatCount="indefinite" begin="-358.39639108375485s"></animateTransform>
    <path d="M84.717,33.597c0.791-2.503,1.186-5.138,1.186-7.773C85.903,11.594,74.308,0,60.079,0 c-9.881,0-18.445,5.534-22.793,13.702c-1.581-0.527-3.426-0.791-5.138-0.791c-9.486,0-17.128,7.642-17.128,17.128 c0,1.186,0.132,2.372,0.395,3.426C6.719,34.783,0,42.424,0,51.515C0,61.66,8.169,69.829,18.314,69.829h63.373 C91.831,69.829,100,61.66,100,51.515C99.868,42.556,93.281,35.046,84.717,33.597z" fill="#bddeff" transform="scale(1)"></path>
  </g><g transform="translate(-100 763.1858129038242) rotate(0)">
    <animateTransform attributeName="transform" type="translate" keyTimes="0;1" values="-100 763.1858129038242;1920 763.1858129038242" dur="125s" repeatCount="indefinite" begin="-57.071504489237036s"></animateTransform>
    <path d="M84.717,33.597c0.791-2.503,1.186-5.138,1.186-7.773C85.903,11.594,74.308,0,60.079,0 c-9.881,0-18.445,5.534-22.793,13.702c-1.581-0.527-3.426-0.791-5.138-0.791c-9.486,0-17.128,7.642-17.128,17.128 c0,1.186,0.132,2.372,0.395,3.426C6.719,34.783,0,42.424,0,51.515C0,61.66,8.169,69.829,18.314,69.829h63.373 C91.831,69.829,100,61.66,100,51.515C99.868,42.556,93.281,35.046,84.717,33.597z" fill="#bddeff" transform="scale(1)"></path>
  </g><g transform="translate(-100 394.96112430266106) rotate(0)">
    <animateTransform attributeName="transform" type="translate" keyTimes="0;1" values="-100 394.96112430266106;1920 394.96112430266106" dur="125s" repeatCount="indefinite" begin="-175.51156196107908s"></animateTransform>
    <path d="M84.717,33.597c0.791-2.503,1.186-5.138,1.186-7.773C85.903,11.594,74.308,0,60.079,0 c-9.881,0-18.445,5.534-22.793,13.702c-1.581-0.527-3.426-0.791-5.138-0.791c-9.486,0-17.128,7.642-17.128,17.128 c0,1.186,0.132,2.372,0.395,3.426C6.719,34.783,0,42.424,0,51.515C0,61.66,8.169,69.829,18.314,69.829h63.373 C91.831,69.829,100,61.66,100,51.515C99.868,42.556,93.281,35.046,84.717,33.597z" fill="#bddeff" transform="scale(1)"></path>
  </g></g>
</svg>
